<svg width="76" height="20" viewBox="0 0 76 20" fill="none" xmlns="http://www.w3.org/2000/svg">
<g clip-path="url(#clip0_342_2313)">
<path d="M14 20H2C1.172 20 0.5 19.328 0.5 18.5C0.5 17.672 1.172 17 2 17H14C14.829 17 15.5 17.672 15.5 18.5C15.5 19.328 14.829 20 14 20ZM14 6H11.622L13.304 4.318C13.889 3.732 13.889 2.782 13.304 2.196C12.718 1.611 11.768 1.611 11.182 2.196L9.5 3.878V1.5C9.5 0.672 8.828 0 8 0C7.172 0 6.5 0.672 6.5 1.5V3.879L4.818 2.197C4.233 1.611 3.282 1.611 2.697 2.197C2.112 2.782 2.112 3.732 2.697 4.318L4.379 6H2C1.172 6 0.5 6.672 0.5 7.5C0.5 8.328 1.172 9 2 9H4.378L2.696 10.682C2.11 11.268 2.111 12.217 2.696 12.803C3.281 13.389 4.231 13.39 4.818 12.803L6.5 11.121V13.5C6.5 14.329 7.172 15 8 15C8.828 15 9.5 14.329 9.5 13.5V11.121L11.182 12.803C11.77 13.39 12.718 13.389 13.304 12.803C13.889 12.217 13.891 11.269 13.304 10.682L11.622 9H14C14.829 9 15.5 8.328 15.5 7.5C15.5 6.672 14.829 6 14 6ZM34 20H22C21.172 20 20.5 19.328 20.5 18.5C20.5 17.672 21.172 17 22 17H34C34.829 17 35.5 17.672 35.5 18.5C35.5 19.328 34.829 20 34 20ZM34 6H31.621L33.304 4.318C33.889 3.732 33.889 2.782 33.304 2.196C32.718 1.611 31.768 1.611 31.182 2.196L29.5 3.878V1.5C29.5 0.672 28.828 0 28 0C27.172 0 26.5 0.672 26.5 1.5V3.879L24.818 2.197C24.233 1.611 23.282 1.611 22.697 2.197C22.112 2.782 22.112 3.732 22.697 4.318L24.379 6H22C21.172 6 20.5 6.672 20.5 7.5C20.5 8.328 21.172 9 22 9H24.378L22.696 10.682C22.11 11.268 22.111 12.217 22.696 12.803C23.281 13.389 24.231 13.39 24.818 12.803L26.5 11.121V13.5C26.5 14.329 27.172 15 28 15C28.828 15 29.5 14.329 29.5 13.5V11.121L31.182 12.803C31.77 13.39 32.718 13.389 33.304 12.803C33.889 12.217 33.891 11.269 33.304 10.682L31.622 9H34C34.829 9 35.5 8.328 35.5 7.5C35.5 6.672 34.829 6 34 6ZM54 20H42C41.172 20 40.5 19.328 40.5 18.5C40.5 17.672 41.172 17 42 17H54C54.829 17 55.5 17.672 55.5 18.5C55.5 19.328 54.829 20 54 20ZM54 6H51.621L53.304 4.318C53.889 3.732 53.889 2.782 53.304 2.196C52.718 1.611 51.768 1.611 51.182 2.196L49.5 3.878V1.5C49.5 0.672 48.828 0 48 0C47.172 0 46.5 0.672 46.5 1.5V3.879L44.818 2.197C44.233 1.611 43.283 1.611 42.697 2.197C42.111 2.782 42.111 3.732 42.697 4.318L44.379 6H42C41.172 6 40.5 6.672 40.5 7.5C40.5 8.328 41.172 9 42 9H44.379L42.697 10.682C42.11 11.268 42.111 12.217 42.697 12.803C43.282 13.389 44.231 13.39 44.818 12.803L46.5 11.121V13.5C46.5 14.329 47.172 15 48 15C48.828 15 49.5 14.329 49.5 13.5V11.121L51.182 12.803C51.77 13.39 52.718 13.389 53.304 12.803C53.889 12.217 53.891 11.269 53.304 10.682L51.622 9H54C54.829 9 55.5 8.328 55.5 7.5C55.5 6.672 54.829 6 54 6ZM74 20H62C61.172 20 60.5 19.328 60.5 18.5C60.5 17.672 61.172 17 62 17H74C74.829 17 75.5 17.672 75.5 18.5C75.5 19.328 74.829 20 74 20ZM74 6H71.621L73.304 4.317C73.889 3.731 73.889 2.781 73.304 2.196C72.718 1.61 71.768 1.61 71.182 2.196L69.5 3.878V1.5C69.5 0.672 68.828 0 68 0C67.172 0 66.5 0.672 66.5 1.5V3.878L64.818 2.196C64.233 1.611 63.283 1.611 62.697 2.196C62.111 2.782 62.111 3.732 62.697 4.317L64.379 6H62C61.172 6 60.5 6.672 60.5 7.5C60.5 8.328 61.172 9 62 9H64.379L62.697 10.682C62.11 11.268 62.111 12.217 62.697 12.803C63.282 13.389 64.231 13.389 64.818 12.803L66.5 11.121V13.5C66.5 14.328 67.172 15 68 15C68.828 15 69.5 14.328 69.5 13.5V11.121L71.182 12.803C71.77 13.389 72.718 13.389 73.304 12.803C73.889 12.217 73.891 11.268 73.304 10.682L71.622 9H74C74.829 9 75.5 8.328 75.5 7.5C75.5 6.672 74.829 6 74 6Z" fill="white"/>
</g>
<defs>
<clipPath id="clip0_342_2313">
<rect width="76" height="20" fill="white"/>
</clipPath>
</defs>
</svg>
