<svg width="45" height="45" viewBox="0 0 45 45" fill="none" xmlns="http://www.w3.org/2000/svg">
<circle cx="22.5" cy="22.5" r="22" stroke="white"/>
<path d="M16.4065 28.1912C16.1268 27.9115 16.1035 27.4726 16.3366 27.1663L16.4065 27.0863L26.1179 17.3758L19.1157 17.3902C18.6842 17.3911 18.3337 17.0421 18.3328 16.6106C18.3319 16.2184 18.6203 15.893 18.9969 15.8364L19.1123 15.8277L28.0057 15.8085C28.0625 15.8084 28.118 15.8144 28.1714 15.8258C28.1871 15.8296 28.2032 15.8336 28.2191 15.838C28.2331 15.8415 28.2469 15.8458 28.2606 15.8505C28.2801 15.8576 28.3 15.8653 28.3196 15.8738C28.3349 15.8801 28.3492 15.8869 28.3633 15.8941C28.3805 15.9032 28.3985 15.9133 28.4162 15.9242C28.4287 15.9316 28.4403 15.9392 28.4516 15.9471C28.4684 15.9589 28.4853 15.9716 28.5018 15.9851C28.5145 15.9953 28.5266 16.0058 28.5384 16.0167C28.5454 16.0235 28.5527 16.0306 28.5599 16.0378L28.581 16.0595C28.5915 16.0707 28.6016 16.0823 28.6113 16.0942L28.5599 16.0378C28.5948 16.0727 28.6257 16.11 28.6526 16.1492C28.659 16.1586 28.6654 16.1684 28.6716 16.1783C28.6843 16.1989 28.6958 16.2194 28.7063 16.2404C28.7115 16.2507 28.7169 16.262 28.7219 16.2735C28.7321 16.2966 28.7409 16.3195 28.7486 16.3426C28.7523 16.3535 28.7559 16.3651 28.7592 16.3768C28.7646 16.396 28.7691 16.4147 28.773 16.4336C28.7757 16.447 28.7782 16.4612 28.7803 16.4756L28.7819 16.4867C28.7865 16.5211 28.7887 16.5556 28.7887 16.5902L28.7886 16.5914L28.7702 25.4855C28.7693 25.9169 28.4188 26.266 27.9873 26.2651C27.5951 26.2643 27.2709 25.9745 27.2159 25.5977L27.2077 25.4822L27.2213 18.4822L17.5114 28.1912C17.2063 28.4963 16.7116 28.4963 16.4065 28.1912Z" fill="white"/>
</svg>
